<svg aria-hidden="true" style="position: absolute; width: 0; height: 0; overflow: hidden;" version="1.1" xmlns="http://www.w3.org/2000/svg" xmlns:xlink="http://www.w3.org/1999/xlink">
<defs>
<symbol id="icon-directions_bus" viewBox="0 0 24 24">
<title>directions_bus</title>
<path d="M18 11.016v-5.016h-12v5.016h12zM16.5 17.016q0.656 0 1.078-0.445t0.422-1.055-0.422-1.055-1.078-0.445-1.078 0.445-0.422 1.055 0.422 1.055 1.078 0.445zM7.5 17.016q0.656 0 1.078-0.445t0.422-1.055-0.422-1.055-1.078-0.445-1.078 0.445-0.422 1.055 0.422 1.055 1.078 0.445zM3.984 15.984v-9.984q0-2.391 2.063-3.188t5.953-0.797 5.953 0.797 2.063 3.188v9.984q0 1.313-1.031 2.25v1.781q0 0.422-0.281 0.703t-0.703 0.281h-0.984q-0.422 0-0.727-0.281t-0.305-0.703v-1.031h-7.969v1.031q0 0.422-0.305 0.703t-0.727 0.281h-0.984q-0.422 0-0.703-0.281t-0.281-0.703v-1.781q-1.031-0.938-1.031-2.25z"></path>
</symbol>
<symbol id="icon-local_parking" viewBox="0 0 24 24">
<title>local_parking</title>
<path d="M13.219 11.016q0.797 0 1.383-0.609t0.586-1.406-0.586-1.406-1.383-0.609h-3.234v4.031h3.234zM12.984 3q2.484 0 4.242 1.758t1.758 4.242-1.758 4.242-4.242 1.758h-3v6h-3.984v-18h6.984z"></path>
</symbol>
<symbol id="icon-menu" viewBox="0 0 24 24">
<title>menu</title>
<path d="M3 6h18v2.016h-18v-2.016zM3 12.984v-1.969h18v1.969h-18zM3 18v-2.016h18v2.016h-18z"></path>
</symbol>
<symbol id="icon-wifi" viewBox="0 0 24 24">
<title>wifi</title>
<path d="M5.016 12.984q2.906-2.859 7.008-2.859t6.961 2.859l-1.969 2.016q-0.844-0.844-2.32-1.453t-2.695-0.609-2.695 0.609-2.32 1.453zM9 17.016q1.266-1.266 3-1.266t3 1.266l-3 3zM0.984 9q4.594-4.547 11.039-4.547t10.992 4.547l-2.016 2.016q-3.75-3.703-9-3.703t-9 3.703z"></path>
</symbol>
<symbol id="icon-people_alt" viewBox="0 0 24 24">
<title>people_alt</title>
<path d="M9 12.984q1.5 0 3.281 0.422t3.258 1.406 1.477 2.203v3h-16.031v-3q0-1.219 1.477-2.203t3.258-1.406 3.281-0.422zM15 12q-0.609 0-1.313-0.234 1.313-1.547 1.313-3.75 0-0.891-0.375-2.016t-0.938-1.781q0.703-0.234 1.313-0.234 1.641 0 2.813 1.195t1.172 2.836-1.172 2.813-2.813 1.172zM5.016 8.016q0-1.641 1.172-2.836t2.813-1.195 2.813 1.195 1.172 2.836-1.172 2.813-2.813 1.172-2.813-1.172-1.172-2.813zM16.688 13.125q2.484 0.375 4.406 1.383t1.922 2.508v3h-4.031v-3q0-2.297-2.297-3.891z"></path>
</symbol>
<symbol id="icon-smoke_free" viewBox="0 0 24 24">
<title>smoke_free</title>
<path d="M17.016 15.938l-2.953-2.953h2.953v2.953zM14.484 8.719q-1.359 0-2.344-1.008t-0.984-2.367 0.984-2.344 2.344-0.984v1.5q-0.797 0-1.313 0.492t-0.516 1.242q0 0.797 0.539 1.406t1.289 0.609h1.547q1.406 0 2.438 0.914t1.031 2.227v1.594h-1.5v-1.266q0-0.938-0.586-1.477t-1.383-0.539h-1.547zM18.844 4.875q1.406 0.656 2.273 2.016t0.867 3.047v2.063h-1.5v-2.063q0-1.688-1.148-2.883t-2.836-1.195v-1.5q0.75 0 1.289-0.539t0.539-1.336h1.5q0 1.406-0.984 2.391zM18 12.984h1.5v3h-1.5v-3zM20.484 12.984h1.5v3h-1.5v-3zM2.016 6l1.219-1.266 17.016 17.016-1.266 1.266-6.984-7.031h-9.984v-3h6.984z"></path>
</symbol>
<symbol id="icon-home" viewBox="0 0 26 28">
<title>home</title>
<path d="M22 15.5v7.5c0 0.547-0.453 1-1 1h-6v-6h-4v6h-6c-0.547 0-1-0.453-1-1v-7.5c0-0.031 0.016-0.063 0.016-0.094l8.984-7.406 8.984 7.406c0.016 0.031 0.016 0.063 0.016 0.094zM25.484 14.422l-0.969 1.156c-0.078 0.094-0.203 0.156-0.328 0.172h-0.047c-0.125 0-0.234-0.031-0.328-0.109l-10.813-9.016-10.813 9.016c-0.109 0.078-0.234 0.125-0.375 0.109-0.125-0.016-0.25-0.078-0.328-0.172l-0.969-1.156c-0.172-0.203-0.141-0.531 0.063-0.703l11.234-9.359c0.656-0.547 1.719-0.547 2.375 0l3.813 3.187v-3.047c0-0.281 0.219-0.5 0.5-0.5h3c0.281 0 0.5 0.219 0.5 0.5v6.375l3.422 2.844c0.203 0.172 0.234 0.5 0.063 0.703z"></path>
</symbol>
</defs>
</svg>
